<?xml version="1.0" standalone="no"?><!DOCTYPE svg PUBLIC "-//W3C//DTD SVG 1.1//EN" "http://www.w3.org/Graphics/SVG/1.1/DTD/svg11.dtd"><svg t="1550489025520" class="icon" style="" viewBox="0 0 1024 1024" version="1.1" xmlns="http://www.w3.org/2000/svg" p-id="1906" xmlns:xlink="http://www.w3.org/1999/xlink" width="200" height="200"><defs><style type="text/css"></style></defs><path d="M849.25280762 493.29577636c-13.51318359-54.38232422-60.39733887-93.85070801-111.48376465-93.850708-38.15002442 0-72.75695801 21.91772461-97.55859375 61.63330078-2.55432129 4.11987305-7.08618164 6.67419434-11.94763184 6.67419434s-9.39331055-2.47192383-11.94763183-6.67419434c-24.71923828-39.71557617-59.40856934-61.63330078-97.55859375-61.63330078-51.08642578 0-97.97058106 39.46838379-111.48376466 93.85070801-9.31091309 37.40844727-20.51696778 168.83239747 220.98999025 299.1027832 241.50695801-130.27038575 230.30090333-261.69433594 220.98999022-299.1027832z m-326.37634278-32.79418944c-18.70422364 3.54309083-35.76049805 16.39709473-45.64819336 34.52453613-12.19482422 22.24731445-12.68920898 49.76806641-1.48315429 77.53601074 2.88391114 7.25097656-0.57678223 15.4083252-7.8277588 18.29223632-1.73034668 0.65917969-3.54309083 0.98876953-5.27343749 0.98876953-5.60302734 0-10.87646484-3.29589844-13.10119629-8.81652831-14.41955567-35.76049805-13.43078614-71.85058594 2.88391114-101.59606934 13.9251709-25.37841797 38.23242188-43.58825684 65.17639159-48.69689941 7.66296387-1.40075684 14.99633789 3.62548828 16.47949219 11.20605469 1.4831543 7.74536133-3.54309083 15.07873536-11.20605469 16.56188965z" fill="#FDB9D0" p-id="1907"></path><path d="M327.26489258 265.96118164c-40.45715333 7.58056641-77.2064209 35.10131836-98.21777344 73.4161377-24.80163575 45.23620606-26.28479004 100.36010742-4.20227051 155.07202148 2.22473145 5.52062989 7.49816895 8.81652833 13.10119629 8.81652832 1.73034668 0 3.54309083-0.32958984 5.2734375-0.98876953 7.25097656-2.88391114 10.71166992-11.12365723 7.8277588-18.29223633-18.86901856-46.71936036-17.88024903-93.27392578 2.80151366-131.01196289 16.97387695-31.06384278 46.38977051-53.22875977 78.6895752-59.32617187 7.66296387-1.40075684 12.68920898-8.81652833 11.20605469-16.47949219-1.4831543-7.66296387-8.89892578-12.68920898-16.47949219-11.20605469zM517.68542481 432.81604003c-26.94396973 5.02624512-51.2512207 23.23608398-65.17639161 48.69689942-16.31469727 29.7454834-17.3034668 65.83557129-2.88391113 101.59606934 2.22473145 5.52062989 7.49816895 8.81652833 13.10119629 8.81652832 1.73034668 0 3.54309083-0.32958984 5.2734375-0.98876953 7.25097656-2.88391114 10.71166992-11.12365723 7.82775879-18.29223633-11.20605469-27.76794434-10.71166992-55.37109375 1.48315429-77.53601075 9.88769531-18.04504395 26.94396973-30.98144531 45.64819336-34.52453613 7.66296387-1.40075684 12.68920898-8.81652833 11.20605469-16.47949218-1.4831543-7.74536133-8.81652833-12.77160645-16.47949219-11.28845215z" fill="#3EBAC4" p-id="1908"></path><path d="M876.60876465 486.53918457c-4.36706543-17.38586426-11.618042-33.94775391-21.25854493-48.69689941 5.19104004-52.89916992-5.85021973-103.16162109-32.21740722-145.84350586-25.21362305-40.78674317-62.95166016-71.60339356-106.29272461-86.76452638-63.69323731-22.32971192-152.27050781-12.85400391-217.2821045 76.3824463-23.81286622-32.62939453-52.15759278-56.44226075-84.45739745-71.1090088-34.52453614-15.57312012-72.50976563-19.69299317-109.75341797-11.7828369C221.87854003 216.44030761 157.36132812 288.95007324 144.7545166 379.25769042c-9.80529786 70.12023926 11.53564453 145.18432617 61.79809571 217.11730958 56.44226075 80.74951172 150.29296875 159.60388184 286.41357421 231.70166016 2.05993653 1.071167 4.28466797 1.64794922 6.59179688 1.64794922 2.22473145 0 4.53186036-0.57678223 6.59179688-1.64794922 22.32971192-11.86523438 43.91784668-24.06005859 64.35241699-36.41967774 16.14990234 9.97009278 33.20617676 19.77539063 51.2512207 29.25109864 2.05993653 1.071167 4.28466797 1.64794922 6.59179687 1.64794921 2.22473145 0 4.53186036-0.57678223 6.59179688-1.64794922 97.55859375-51.66320801 167.59643555-109.91821289 208.13598633-173.28186035 43.75305176-68.38989258 42.35229492-125.40893555 33.5357666-161.08703613zM628.26281739 792.39855957C386.75585937 662.12817383 397.96191406 530.70422364 407.27282714 493.29577636c13.51318359-54.38232422 60.39733887-93.85070801 111.48376466-93.850708 38.15002442 0 72.75695801 21.91772461 97.55859375 61.63330078 2.55432129 4.11987305 7.08618164 6.67419434 11.94763184 6.67419434s9.39331055-2.47192383 11.94763183-6.67419434c24.71923828-39.71557617 59.40856934-61.63330078 97.55859375-61.63330078 51.08642578 0 97.97058106 39.46838379 111.48376465 93.85070801 9.31091309 37.40844727 20.51696778 168.83239747-220.98999024 299.1027832zM499.55798339 799.56713867c-123.76098633-66.41235352-214.56298828-140.15808106-269.93408202-219.42443848-46.06018067-65.91796875-65.75317383-134.06066895-56.93664551-197.0123291 10.95886231-78.60717773 66.6595459-141.64123536 138.51013184-156.88476562 68.30749512-14.50195313 132.65991211 17.55065918 176.49536132 87.91809082 2.55432129 4.11987305 7.08618164 6.67419434 11.94763184 6.67419433s9.39331055-2.47192383 11.94763184-6.67419434c48.36730958-77.70080567 121.70104981-108.51745606 196.02355957-82.39746092C767.10253906 252.69519043 826.01672364 315.07006836 828.40625 406.53125c-1.31835938-1.15356445-2.55432129-2.22473145-3.95507813-3.3782959-25.13122559-20.59936523-55.94787598-31.97021484-86.6821289-31.97021485-42.1875 0-80.41992188 20.35217286-109.50622559 57.67822266-29.08630372-37.40844727-67.31872559-57.67822266-109.50622558-57.67822266-30.81665039 0-61.55090333 11.37084961-86.76452638 31.97021485-25.46081543 20.84655762-44.00024414 50.42724609-52.15759276 83.30383301-8.89892578 35.76049805-10.29968262 92.69714356 33.5357666 161.08703614 28.83911133 45.07141114 72.67456055 87.50610352 130.59997558 126.89208983-14.17236328 8.56933594-29.08630372 16.97387695-44.41223145 25.13122559z" fill="#3EBAC4" p-id="1909"></path></svg>