<?xml version="1.0" standalone="no"?><!DOCTYPE svg PUBLIC "-//W3C//DTD SVG 1.1//EN" "http://www.w3.org/Graphics/SVG/1.1/DTD/svg11.dtd"><svg t="1550287591185" class="icon" style="" viewBox="0 0 1024 1024" version="1.1" xmlns="http://www.w3.org/2000/svg" p-id="1865" xmlns:xlink="http://www.w3.org/1999/xlink" width="200" height="200"><defs><style type="text/css"></style></defs><path d="M762.07558555 234.66663177c-44.85577148 0-81.0420293 34.22981602-81.0420293 79.08734531v73.56958242l70.18052695 58.63875294h28.14252364c23.31382148 0 41.31378633-21.25191182 41.31378633-44.56924893v-25.25092735h14.97126005c23.31382148 0 41.98702763-21.79331719 41.98702676-45.10713779v-28.14252363c38.58390879 0 70.58482295-25.96811308 70.58482383-68.22584297H762.07558555zM261.92265664 234.66663177c44.85577148 0 81.0420293 34.22981602 81.0420293 79.08734531v73.56958242l-70.18052696 58.63875294h-28.14252363c-23.31382148 0-41.31378633-21.25191182-41.31378633-44.56924893v-25.25092735h-14.97126006c-23.31382148 0-41.98702763-21.79331719-41.98702675-45.10713779v-28.14252363c-42.25948769 0-70.58482295-25.96811308-70.58482383-68.22584297h186.13791826z" fill="#FAEDD6" p-id="1866"></path><path d="M723.43894238 415.49596595c-54.95262715-54.95262715-144.05069531-54.95262715-199.00156465 0l-14.92555605 14.92555693-9.94919941-9.94919942c-54.95262715-54.95262715-144.0489375-54.95262715-199.00156465 0s-54.95262715 144.05069531-1e-8 199.00156466l208.95252189 208.95252099 213.92887851-213.92887851c54.94911153-54.95262715 54.94911153-144.0489375-0.00351562-199.00156465z" fill="#FA004B" p-id="1867"></path><path d="M762.07558555 218.75494378c-52.38271055 0-94.9990333 42.61632276-94.99903331 94.9990333V366.69215461c-52.35634336-15.13473574-111.19900166-2.12519092-152.38622549 39.06027599l-5.1820207 5.1820207-0.20566406-0.20566406c-41.18546602-41.18546602-100.02636738-54.19325391-152.38446767-39.0602751v-57.91453506c0-52.38095273-42.61632276-94.9990333-94.9990333-94.9990333H62v13.77946494c0 46.39385479 37.74367617 84.13753096 84.13753096 84.13753096h70.35806601v-27.5606877H146.13753096c-26.44623721 0-48.71240508-18.23726865-54.88055684-42.79737744h170.66392471c37.18645049 0 67.43834473 30.25189424 67.43834472 67.43834473v68.86392802a153.92079317 153.92079317 0 0 0-38.54523691 28.10912432 154.93329141 154.93329141 0 0 0-16.20699961 19.10035371h-29.96888731c-15.67789893 0-28.43431963-12.75466289-28.43431962-28.43431962H188.6431124c0 30.87591592 25.11909141 55.9950082 55.99500733 55.9950082h14.210129c-25.04174766 56.68406895-14.41403437 125.44604385 31.96751572 171.82935175l218.69605723 218.69605723 9.74353535-9.74353535L733.18423555 624.23930813c45.02979492-45.02979492 56.3852417-111.16384541 34.09446533-166.85299423h12.0849372c30.8741581 0 55.9950082-25.11909141 55.99500733-55.9950082h-27.5606877c0 15.67965674-12.75466289 28.43431963-28.43431963 28.43431962h-26.50600282a154.64325234 154.64325234 0 0 0-19.66988409-24.07671035 153.81532441 153.81532441 0 0 0-38.54523692-28.1091252v-63.8875705c0-37.18469268 30.25189424-67.43834473 67.43834473-67.43834473h170.66392471c-6.16815176 24.56010791-28.43431963 42.79737744-54.88055684 42.79737744H807.50440302v27.5606877h70.35806602c46.39385479 0 84.13753096-37.74367617 84.13753096-84.13753096V218.75494378H762.07558555z m-48.38720977 386.00432402L509.5135795 808.93582278 310.30283516 609.73035189c-49.49287208-49.49287208-49.49287208-130.02162099 0-179.51449307 24.74467823-24.74467823 57.25184151-37.1196545 89.75548916-37.11965362 32.50716328 0 65.01081094 12.37321846 89.75900391 37.11965362l19.69449345 19.69449258 24.66909228-24.66909229c49.49287208-49.49287208 130.02337881-49.49287208 179.51449307 0s49.49111426 130.01986318-0.00703125 179.51800869z" fill="#232323" p-id="1868"></path><path d="M835.64516885 359.46931711h-70.35806602v27.56068859h70.35806602c30.87591592 0 55.9950082-25.11909141 55.99500732-55.99500733h-27.5606877c0.00175781 15.67965674-12.75466289 28.43431963-28.43431962 28.43431875zM258.71113935 359.46931711H188.35307334c-15.67965674 0-28.43431963-12.75466289-28.43431962-28.43431874H132.35806602c0 30.8741581 25.11909141 55.9950082 55.99500732 55.99500733h70.35806601v-27.56068859z" fill="#232323" p-id="1869"></path><path d="M708.70850263 513.94206253h-27.56068857c0-31.23450967-25.83627803-56.55574864-57.07254463-56.55574863v-27.56068858c47.77197714 0.00175781 84.6332332 38.18312842 84.6332332 84.11643721z" fill="#FFFFFF" p-id="1870"></path><path d="M497.30559541 234.6578427h27.56068769v84.51721758h-27.56068769zM563.94941065 340.77853372l-19.4888294-19.48707158 42.21378457-42.21378457 19.48882939 19.48707159zM460.04707373 340.79083841L417.83328916 298.57705383l19.48707159-19.48882938 42.21554237 42.21378456z" fill="#36C9A3" p-id="1871"></path></svg>